<?xml version="1.0" encoding="UTF-8" standalone="no"?>
<!DOCTYPE svg PUBLIC "-//W3C//DTD SVG 1.1//EN"
 "http://www.w3.org/Graphics/SVG/1.1/DTD/svg11.dtd">
<!-- Generated by graphviz version 2.40.1 (20161225.0304)
 -->
<!-- Title: snakemake_dag Pages: 1 -->
<svg width="340pt" height="553pt"
 viewBox="0.00 0.00 339.89 553.00" xmlns="http://www.w3.org/2000/svg" xmlns:xlink="http://www.w3.org/1999/xlink">
<g id="graph0" class="graph" transform="scale(1 1) rotate(0) translate(4 549)">
<title>snakemake_dag</title>
<polygon fill="#ffffff" stroke="transparent" points="-4,4 -4,-549 335.8857,-549 335.8857,4 -4,4"/>
<!-- 0 -->
<g id="node1" class="node">
<title>0</title>
<path fill="none" stroke="#56d88a" stroke-width="2" d="M140.491,-36C140.491,-36 110.491,-36 110.491,-36 104.491,-36 98.491,-30 98.491,-24 98.491,-24 98.491,-12 98.491,-12 98.491,-6 104.491,0 110.491,0 110.491,0 140.491,0 140.491,0 146.491,0 152.491,-6 152.491,-12 152.491,-12 152.491,-24 152.491,-24 152.491,-30 146.491,-36 140.491,-36"/>
<text text-anchor="middle" x="125.491" y="-15.5" font-family="sans" font-size="10.00" fill="#000000">all</text>
</g>
<!-- 1 -->
<g id="node2" class="node">
<title>1</title>
<path fill="none" stroke="#56d8c1" stroke-width="2" d="M101.491,-108C101.491,-108 63.491,-108 63.491,-108 57.491,-108 51.491,-102 51.491,-96 51.491,-96 51.491,-84 51.491,-84 51.491,-78 57.491,-72 63.491,-72 63.491,-72 101.491,-72 101.491,-72 107.491,-72 113.491,-78 113.491,-84 113.491,-84 113.491,-96 113.491,-96 113.491,-102 107.491,-108 101.491,-108"/>
<text text-anchor="middle" x="82.491" y="-87.5" font-family="sans" font-size="10.00" fill="#000000">metabat2</text>
</g>
<!-- 1&#45;&gt;0 -->
<g id="edge1" class="edge">
<title>1&#45;&gt;0</title>
<path fill="none" stroke="#c0c0c0" stroke-width="2" d="M93.3417,-71.8314C98.1932,-63.7079 104.0126,-53.9637 109.3589,-45.0118"/>
<polygon fill="#c0c0c0" stroke="#c0c0c0" stroke-width="2" points="112.3716,-46.7933 114.4941,-36.4133 106.3618,-43.2041 112.3716,-46.7933"/>
</g>
<!-- 2 -->
<g id="node3" class="node">
<title>2</title>
<path fill="none" stroke="#56d8c1" stroke-width="2" d="M199.491,-108C199.491,-108 161.491,-108 161.491,-108 155.491,-108 149.491,-102 149.491,-96 149.491,-96 149.491,-84 149.491,-84 149.491,-78 155.491,-72 161.491,-72 161.491,-72 199.491,-72 199.491,-72 205.491,-72 211.491,-78 211.491,-84 211.491,-84 211.491,-96 211.491,-96 211.491,-102 205.491,-108 199.491,-108"/>
<text text-anchor="middle" x="180.491" y="-87.5" font-family="sans" font-size="10.00" fill="#000000">metabat2</text>
</g>
<!-- 2&#45;&gt;0 -->
<g id="edge2" class="edge">
<title>2&#45;&gt;0</title>
<path fill="none" stroke="#c0c0c0" stroke-width="2" d="M166.6121,-71.8314C160.2774,-63.5386 152.6526,-53.557 145.6984,-44.4533"/>
<polygon fill="#c0c0c0" stroke="#c0c0c0" stroke-width="2" points="148.4084,-42.2353 139.5567,-36.4133 142.8457,-46.4847 148.4084,-42.2353"/>
</g>
<!-- 3 -->
<g id="node4" class="node">
<title>3</title>
<path fill="none" stroke="#d88d56" stroke-width="2" d="M100.491,-180C100.491,-180 64.491,-180 64.491,-180 58.491,-180 52.491,-174 52.491,-168 52.491,-168 52.491,-156 52.491,-156 52.491,-150 58.491,-144 64.491,-144 64.491,-144 100.491,-144 100.491,-144 106.491,-144 112.491,-150 112.491,-156 112.491,-156 112.491,-168 112.491,-168 112.491,-174 106.491,-180 100.491,-180"/>
<text text-anchor="middle" x="82.491" y="-159.5" font-family="sans" font-size="10.00" fill="#000000">coverage</text>
</g>
<!-- 3&#45;&gt;1 -->
<g id="edge3" class="edge">
<title>3&#45;&gt;1</title>
<path fill="none" stroke="#c0c0c0" stroke-width="2" d="M82.491,-143.8314C82.491,-136.131 82.491,-126.9743 82.491,-118.4166"/>
<polygon fill="#c0c0c0" stroke="#c0c0c0" stroke-width="2" points="85.9911,-118.4132 82.491,-108.4133 78.9911,-118.4133 85.9911,-118.4132"/>
</g>
<!-- 4 -->
<g id="node5" class="node">
<title>4</title>
<path fill="none" stroke="#56c1d8" stroke-width="2" d="M101.991,-396C101.991,-396 18.991,-396 18.991,-396 12.991,-396 6.991,-390 6.991,-384 6.991,-384 6.991,-372 6.991,-372 6.991,-366 12.991,-360 18.991,-360 18.991,-360 101.991,-360 101.991,-360 107.991,-360 113.991,-366 113.991,-372 113.991,-372 113.991,-384 113.991,-384 113.991,-390 107.991,-396 101.991,-396"/>
<text text-anchor="middle" x="60.491" y="-375.5" font-family="sans" font-size="10.00" fill="#000000">individual_assembly</text>
</g>
<!-- 4&#45;&gt;1 -->
<g id="edge4" class="edge">
<title>4&#45;&gt;1</title>
<path fill="none" stroke="#c0c0c0" stroke-width="2" d="M33.0015,-359.7646C21.6061,-350.5451 9.6313,-338.2754 3.491,-324 -2.8311,-309.302 2.1713,-303.9455 3.491,-288 8.9696,-221.8031 11.7516,-202.3495 43.491,-144 48.63,-134.5524 55.1822,-124.8425 61.4425,-116.3077"/>
<polygon fill="#c0c0c0" stroke="#c0c0c0" stroke-width="2" points="64.3165,-118.3097 67.5425,-108.2179 58.7273,-114.0953 64.3165,-118.3097"/>
</g>
<!-- 11 -->
<g id="node12" class="node">
<title>11</title>
<path fill="none" stroke="#d85656" stroke-width="2" d="M101.991,-324C101.991,-324 24.991,-324 24.991,-324 18.991,-324 12.991,-318 12.991,-312 12.991,-312 12.991,-300 12.991,-300 12.991,-294 18.991,-288 24.991,-288 24.991,-288 101.991,-288 101.991,-288 107.991,-288 113.991,-294 113.991,-300 113.991,-300 113.991,-312 113.991,-312 113.991,-318 107.991,-324 101.991,-324"/>
<text text-anchor="middle" x="63.491" y="-303.5" font-family="sans" font-size="10.00" fill="#000000">build_asmfa_index</text>
</g>
<!-- 4&#45;&gt;11 -->
<g id="edge19" class="edge">
<title>4&#45;&gt;11</title>
<path fill="none" stroke="#c0c0c0" stroke-width="2" d="M61.248,-359.8314C61.5688,-352.131 61.9504,-342.9743 62.3069,-334.4166"/>
<polygon fill="#c0c0c0" stroke="#c0c0c0" stroke-width="2" points="65.8043,-334.5503 62.7237,-324.4133 58.8104,-334.2589 65.8043,-334.5503"/>
</g>
<!-- 5 -->
<g id="node6" class="node">
<title>5</title>
<path fill="none" stroke="#d88d56" stroke-width="2" d="M270.491,-180C270.491,-180 234.491,-180 234.491,-180 228.491,-180 222.491,-174 222.491,-168 222.491,-168 222.491,-156 222.491,-156 222.491,-150 228.491,-144 234.491,-144 234.491,-144 270.491,-144 270.491,-144 276.491,-144 282.491,-150 282.491,-156 282.491,-156 282.491,-168 282.491,-168 282.491,-174 276.491,-180 270.491,-180"/>
<text text-anchor="middle" x="252.491" y="-159.5" font-family="sans" font-size="10.00" fill="#000000">coverage</text>
</g>
<!-- 5&#45;&gt;2 -->
<g id="edge5" class="edge">
<title>5&#45;&gt;2</title>
<path fill="none" stroke="#c0c0c0" stroke-width="2" d="M234.3223,-143.8314C225.7757,-135.2848 215.4353,-124.9443 206.1108,-115.6198"/>
<polygon fill="#c0c0c0" stroke="#c0c0c0" stroke-width="2" points="208.4502,-113.0095 198.9042,-108.4133 203.5004,-117.9592 208.4502,-113.0095"/>
</g>
<!-- 6 -->
<g id="node7" class="node">
<title>6</title>
<path fill="none" stroke="#56c1d8" stroke-width="2" d="M297.991,-396C297.991,-396 214.991,-396 214.991,-396 208.991,-396 202.991,-390 202.991,-384 202.991,-384 202.991,-372 202.991,-372 202.991,-366 208.991,-360 214.991,-360 214.991,-360 297.991,-360 297.991,-360 303.991,-360 309.991,-366 309.991,-372 309.991,-372 309.991,-384 309.991,-384 309.991,-390 303.991,-396 297.991,-396"/>
<text text-anchor="middle" x="256.491" y="-375.5" font-family="sans" font-size="10.00" fill="#000000">individual_assembly</text>
</g>
<!-- 6&#45;&gt;2 -->
<g id="edge6" class="edge">
<title>6&#45;&gt;2</title>
<path fill="none" stroke="#c0c0c0" stroke-width="2" d="M229.8274,-359.7675C218.4535,-350.4709 206.2632,-338.1379 199.491,-324 166.8885,-255.9384 171.5074,-163.9213 176.5605,-118.2052"/>
<polygon fill="#c0c0c0" stroke="#c0c0c0" stroke-width="2" points="180.052,-118.4842 177.7653,-108.1391 173.1016,-117.6523 180.052,-118.4842"/>
</g>
<!-- 14 -->
<g id="node15" class="node">
<title>14</title>
<path fill="none" stroke="#d85656" stroke-width="2" d="M297.991,-324C297.991,-324 220.991,-324 220.991,-324 214.991,-324 208.991,-318 208.991,-312 208.991,-312 208.991,-300 208.991,-300 208.991,-294 214.991,-288 220.991,-288 220.991,-288 297.991,-288 297.991,-288 303.991,-288 309.991,-294 309.991,-300 309.991,-300 309.991,-312 309.991,-312 309.991,-318 303.991,-324 297.991,-324"/>
<text text-anchor="middle" x="259.491" y="-303.5" font-family="sans" font-size="10.00" fill="#000000">build_asmfa_index</text>
</g>
<!-- 6&#45;&gt;14 -->
<g id="edge20" class="edge">
<title>6&#45;&gt;14</title>
<path fill="none" stroke="#c0c0c0" stroke-width="2" d="M257.248,-359.8314C257.5688,-352.131 257.9504,-342.9743 258.3069,-334.4166"/>
<polygon fill="#c0c0c0" stroke="#c0c0c0" stroke-width="2" points="261.8043,-334.5503 258.7237,-324.4133 254.8104,-334.2589 261.8043,-334.5503"/>
</g>
<!-- 7 -->
<g id="node8" class="node">
<title>7</title>
<path fill="none" stroke="#568ad8" stroke-width="2" d="M128.491,-252C128.491,-252 36.491,-252 36.491,-252 30.491,-252 24.491,-246 24.491,-240 24.491,-240 24.491,-228 24.491,-228 24.491,-222 30.491,-216 36.491,-216 36.491,-216 128.491,-216 128.491,-216 134.491,-216 140.491,-222 140.491,-228 140.491,-228 140.491,-240 140.491,-240 140.491,-246 134.491,-252 128.491,-252"/>
<text text-anchor="middle" x="82.491" y="-231.5" font-family="sans" font-size="10.00" fill="#000000">align_reads_to_asmfa</text>
</g>
<!-- 7&#45;&gt;3 -->
<g id="edge7" class="edge">
<title>7&#45;&gt;3</title>
<path fill="none" stroke="#c0c0c0" stroke-width="2" d="M82.491,-215.8314C82.491,-208.131 82.491,-198.9743 82.491,-190.4166"/>
<polygon fill="#c0c0c0" stroke="#c0c0c0" stroke-width="2" points="85.9911,-190.4132 82.491,-180.4133 78.9911,-190.4133 85.9911,-190.4132"/>
</g>
<!-- 8 -->
<g id="node9" class="node">
<title>8</title>
<path fill="none" stroke="#88d856" stroke-width="2" d="M151.991,-468C151.991,-468 86.991,-468 86.991,-468 80.991,-468 74.991,-462 74.991,-456 74.991,-456 74.991,-444 74.991,-444 74.991,-438 80.991,-432 86.991,-432 86.991,-432 151.991,-432 151.991,-432 157.991,-432 163.991,-438 163.991,-444 163.991,-444 163.991,-456 163.991,-456 163.991,-462 157.991,-468 151.991,-468"/>
<text text-anchor="middle" x="119.491" y="-447.5" font-family="sans" font-size="10.00" fill="#000000">rmhost_pe_pair</text>
</g>
<!-- 8&#45;&gt;4 -->
<g id="edge8" class="edge">
<title>8&#45;&gt;4</title>
<path fill="none" stroke="#c0c0c0" stroke-width="2" d="M104.6028,-431.8314C97.738,-423.454 89.4609,-413.3531 81.9399,-404.1749"/>
<polygon fill="#c0c0c0" stroke="#c0c0c0" stroke-width="2" points="84.6251,-401.9297 75.5796,-396.4133 79.2107,-406.3665 84.6251,-401.9297"/>
</g>
<!-- 8&#45;&gt;7 -->
<g id="edge12" class="edge">
<title>8&#45;&gt;7</title>
<path fill="none" stroke="#c0c0c0" stroke-width="2" d="M123.6203,-431.9244C129.7771,-401.3683 138.9768,-337.9527 122.491,-288 119.2002,-278.0288 113.2794,-268.3944 106.9845,-260.0924"/>
<polygon fill="#c0c0c0" stroke="#c0c0c0" stroke-width="2" points="109.6629,-257.8384 100.6485,-252.2714 104.2238,-262.2448 109.6629,-257.8384"/>
</g>
<!-- 9 -->
<g id="node10" class="node">
<title>9</title>
<path fill="none" stroke="#568ad8" stroke-width="2" d="M312.491,-252C312.491,-252 220.491,-252 220.491,-252 214.491,-252 208.491,-246 208.491,-240 208.491,-240 208.491,-228 208.491,-228 208.491,-222 214.491,-216 220.491,-216 220.491,-216 312.491,-216 312.491,-216 318.491,-216 324.491,-222 324.491,-228 324.491,-228 324.491,-240 324.491,-240 324.491,-246 318.491,-252 312.491,-252"/>
<text text-anchor="middle" x="266.491" y="-231.5" font-family="sans" font-size="10.00" fill="#000000">align_reads_to_asmfa</text>
</g>
<!-- 9&#45;&gt;5 -->
<g id="edge9" class="edge">
<title>9&#45;&gt;5</title>
<path fill="none" stroke="#c0c0c0" stroke-width="2" d="M262.9582,-215.8314C261.4609,-208.131 259.6804,-198.9743 258.0164,-190.4166"/>
<polygon fill="#c0c0c0" stroke="#c0c0c0" stroke-width="2" points="261.4157,-189.5614 256.0713,-180.4133 254.5444,-190.8975 261.4157,-189.5614"/>
</g>
<!-- 10 -->
<g id="node11" class="node">
<title>10</title>
<path fill="none" stroke="#88d856" stroke-width="2" d="M299.991,-468C299.991,-468 234.991,-468 234.991,-468 228.991,-468 222.991,-462 222.991,-456 222.991,-456 222.991,-444 222.991,-444 222.991,-438 228.991,-432 234.991,-432 234.991,-432 299.991,-432 299.991,-432 305.991,-432 311.991,-438 311.991,-444 311.991,-444 311.991,-456 311.991,-456 311.991,-462 305.991,-468 299.991,-468"/>
<text text-anchor="middle" x="267.491" y="-447.5" font-family="sans" font-size="10.00" fill="#000000">rmhost_pe_pair</text>
</g>
<!-- 10&#45;&gt;6 -->
<g id="edge10" class="edge">
<title>10&#45;&gt;6</title>
<path fill="none" stroke="#c0c0c0" stroke-width="2" d="M264.7152,-431.8314C263.5387,-424.131 262.1398,-414.9743 260.8324,-406.4166"/>
<polygon fill="#c0c0c0" stroke="#c0c0c0" stroke-width="2" points="264.2743,-405.7699 259.3041,-396.4133 257.3546,-406.8272 264.2743,-405.7699"/>
</g>
<!-- 10&#45;&gt;9 -->
<g id="edge16" class="edge">
<title>10&#45;&gt;9</title>
<path fill="none" stroke="#c0c0c0" stroke-width="2" d="M291.34,-431.928C301.7851,-422.5042 312.9169,-410.02 318.491,-396 336.2246,-351.396 336.4406,-332.5175 318.491,-288 314.1685,-277.2796 306.5866,-267.4983 298.5271,-259.2948"/>
<polygon fill="#c0c0c0" stroke="#c0c0c0" stroke-width="2" points="300.7352,-256.5652 291.0711,-252.2228 295.9179,-261.644 300.7352,-256.5652"/>
</g>
<!-- 11&#45;&gt;7 -->
<g id="edge11" class="edge">
<title>11&#45;&gt;7</title>
<path fill="none" stroke="#c0c0c0" stroke-width="2" d="M68.2855,-287.8314C70.3398,-280.0463 72.787,-270.7729 75.0665,-262.1347"/>
<polygon fill="#c0c0c0" stroke="#c0c0c0" stroke-width="2" points="78.4644,-262.9753 77.6319,-252.4133 71.6961,-261.1892 78.4644,-262.9753"/>
</g>
<!-- 12 -->
<g id="node13" class="node">
<title>12</title>
<path fill="none" stroke="#59d856" stroke-width="2" d="M99.491,-545C99.491,-545 47.491,-545 47.491,-545 41.491,-545 35.491,-539 35.491,-533 35.491,-533 35.491,-516 35.491,-516 35.491,-510 41.491,-504 47.491,-504 47.491,-504 99.491,-504 99.491,-504 105.491,-504 111.491,-510 111.491,-516 111.491,-516 111.491,-533 111.491,-533 111.491,-539 105.491,-545 99.491,-545"/>
<text text-anchor="middle" x="73.491" y="-533" font-family="sans" font-size="10.00" fill="#000000">trimming_pe</text>
<text text-anchor="middle" x="73.491" y="-522" font-family="sans" font-size="10.00" fill="#000000">sample: s2</text>
<text text-anchor="middle" x="73.491" y="-511" font-family="sans" font-size="10.00" fill="#000000">unit: lane2</text>
</g>
<!-- 12&#45;&gt;8 -->
<g id="edge13" class="edge">
<title>12&#45;&gt;8</title>
<path fill="none" stroke="#c0c0c0" stroke-width="2" d="M86.3045,-503.7476C91.4884,-495.352 97.5375,-485.5551 103.0407,-476.6423"/>
<polygon fill="#c0c0c0" stroke="#c0c0c0" stroke-width="2" points="106.0341,-478.4562 108.3098,-468.1087 100.078,-474.7786 106.0341,-478.4562"/>
</g>
<!-- 13 -->
<g id="node14" class="node">
<title>13</title>
<path fill="none" stroke="#bed856" stroke-width="2" d="M211.491,-542.5C211.491,-542.5 141.491,-542.5 141.491,-542.5 135.491,-542.5 129.491,-536.5 129.491,-530.5 129.491,-530.5 129.491,-518.5 129.491,-518.5 129.491,-512.5 135.491,-506.5 141.491,-506.5 141.491,-506.5 211.491,-506.5 211.491,-506.5 217.491,-506.5 223.491,-512.5 223.491,-518.5 223.491,-518.5 223.491,-530.5 223.491,-530.5 223.491,-536.5 217.491,-542.5 211.491,-542.5"/>
<text text-anchor="middle" x="176.491" y="-522" font-family="sans" font-size="10.00" fill="#000000">build_host_index</text>
</g>
<!-- 13&#45;&gt;8 -->
<g id="edge14" class="edge">
<title>13&#45;&gt;8</title>
<path fill="none" stroke="#c0c0c0" stroke-width="2" d="M162.6929,-506.4656C155.7429,-497.3819 147.1867,-486.1989 139.5275,-476.1881"/>
<polygon fill="#c0c0c0" stroke="#c0c0c0" stroke-width="2" points="142.2158,-473.9418 133.3596,-468.1265 136.6564,-478.1954 142.2158,-473.9418"/>
</g>
<!-- 13&#45;&gt;10 -->
<g id="edge18" class="edge">
<title>13&#45;&gt;10</title>
<path fill="none" stroke="#c0c0c0" stroke-width="2" d="M198.5195,-506.4656C210.1698,-496.9277 224.6473,-485.0753 237.3258,-474.6956"/>
<polygon fill="#c0c0c0" stroke="#c0c0c0" stroke-width="2" points="239.8293,-477.1694 245.3499,-468.1265 235.395,-471.753 239.8293,-477.1694"/>
</g>
<!-- 14&#45;&gt;9 -->
<g id="edge15" class="edge">
<title>14&#45;&gt;9</title>
<path fill="none" stroke="#c0c0c0" stroke-width="2" d="M261.2574,-287.8314C262.006,-280.131 262.8962,-270.9743 263.7282,-262.4166"/>
<polygon fill="#c0c0c0" stroke="#c0c0c0" stroke-width="2" points="267.2166,-262.7051 264.7008,-252.4133 260.2495,-262.0276 267.2166,-262.7051"/>
</g>
<!-- 15 -->
<g id="node16" class="node">
<title>15</title>
<path fill="none" stroke="#59d856" stroke-width="2" d="M305.491,-545C305.491,-545 253.491,-545 253.491,-545 247.491,-545 241.491,-539 241.491,-533 241.491,-533 241.491,-516 241.491,-516 241.491,-510 247.491,-504 253.491,-504 253.491,-504 305.491,-504 305.491,-504 311.491,-504 317.491,-510 317.491,-516 317.491,-516 317.491,-533 317.491,-533 317.491,-539 311.491,-545 305.491,-545"/>
<text text-anchor="middle" x="279.491" y="-533" font-family="sans" font-size="10.00" fill="#000000">trimming_pe</text>
<text text-anchor="middle" x="279.491" y="-522" font-family="sans" font-size="10.00" fill="#000000">sample: s1</text>
<text text-anchor="middle" x="279.491" y="-511" font-family="sans" font-size="10.00" fill="#000000">unit: lane1</text>
</g>
<!-- 15&#45;&gt;10 -->
<g id="edge17" class="edge">
<title>15&#45;&gt;10</title>
<path fill="none" stroke="#c0c0c0" stroke-width="2" d="M276.1483,-503.7476C274.8664,-495.7892 273.3817,-486.5718 272.0078,-478.0418"/>
<polygon fill="#c0c0c0" stroke="#c0c0c0" stroke-width="2" points="275.4536,-477.4248 270.4078,-468.1087 268.5427,-478.538 275.4536,-477.4248"/>
</g>
</g>
</svg>
