<?xml version="1.0" encoding="UTF-8" standalone="no"?>
<!DOCTYPE svg PUBLIC "-//W3C//DTD SVG 1.1//EN"
 "http://www.w3.org/Graphics/SVG/1.1/DTD/svg11.dtd">
<!-- Generated by graphviz version 2.38.0 (20140413.2041)
 -->
<!-- Title: snakemake_dag Pages: 1 -->
<svg width="890pt" height="548pt"
 viewBox="0.00 0.00 890.00 548.00" xmlns="http://www.w3.org/2000/svg" xmlns:xlink="http://www.w3.org/1999/xlink">
<g id="graph0" class="graph" transform="scale(1 1) rotate(0) translate(4 544)">
<title>snakemake_dag</title>
<polygon fill="white" stroke="none" points="-4,4 -4,-544 886,-544 886,4 -4,4"/>
<!-- 0 -->
<g id="node1" class="node"><title>0</title>
<path fill="none" stroke="#d85656" stroke-width="2" d="M405,-36C405,-36 375,-36 375,-36 369,-36 363,-30 363,-24 363,-24 363,-12 363,-12 363,-6 369,-0 375,-0 375,-0 405,-0 405,-0 411,-0 417,-6 417,-12 417,-12 417,-24 417,-24 417,-30 411,-36 405,-36"/>
<text text-anchor="middle" x="390" y="-15.5" font-family="sans" font-size="10.00">all</text>
</g>
<!-- 1 -->
<g id="node2" class="node"><title>1</title>
<path fill="none" stroke="#70d856" stroke-width="2" d="M118,-180C118,-180 24,-180 24,-180 18,-180 12,-174 12,-168 12,-168 12,-156 12,-156 12,-150 18,-144 24,-144 24,-144 118,-144 118,-144 124,-144 130,-150 130,-156 130,-156 130,-168 130,-168 130,-174 124,-180 118,-180"/>
<text text-anchor="middle" x="71" y="-165" font-family="sans" font-size="10.00">metaphlan2_profilling</text>
<text text-anchor="middle" x="71" y="-154" font-family="sans" font-size="10.00">sample: simulation</text>
</g>
<!-- 1&#45;&gt;0 -->
<g id="edge1" class="edge"><title>1&#45;&gt;0</title>
<path fill="none" stroke="grey" stroke-width="2" d="M86.0142,-143.873C106.606,-120.771 142.989,-81.425 160,-72 221.981,-37.66 305.17,-25.5295 352.637,-21.2728"/>
<polygon fill="grey" stroke="grey" stroke-width="2" points="353.091,-24.7473 362.769,-20.4359 352.514,-17.771 353.091,-24.7473"/>
</g>
<!-- 6 -->
<g id="node7" class="node"><title>6</title>
<path fill="none" stroke="#59d856" stroke-width="2" d="M96,-108C96,-108 12,-108 12,-108 6,-108 0,-102 0,-96 0,-96 0,-84 0,-84 0,-78 6,-72 12,-72 12,-72 96,-72 96,-72 102,-72 108,-78 108,-84 108,-84 108,-96 108,-96 108,-102 102,-108 96,-108"/>
<text text-anchor="middle" x="54" y="-87.5" font-family="sans" font-size="10.00">metaphlan2_merge</text>
</g>
<!-- 1&#45;&gt;6 -->
<g id="edge19" class="edge"><title>1&#45;&gt;6</title>
<path fill="none" stroke="grey" stroke-width="2" d="M66.7978,-143.697C64.9038,-135.898 62.6235,-126.509 60.5157,-117.829"/>
<polygon fill="grey" stroke="grey" stroke-width="2" points="63.9151,-116.996 58.1539,-108.104 57.1128,-118.648 63.9151,-116.996"/>
</g>
<!-- 2 -->
<g id="node3" class="node"><title>2</title>
<path fill="none" stroke="#569ad8" stroke-width="2" d="M431,-324C431,-324 339,-324 339,-324 333,-324 327,-318 327,-312 327,-312 327,-300 327,-300 327,-294 333,-288 339,-288 339,-288 431,-288 431,-288 437,-288 443,-294 443,-300 443,-300 443,-312 443,-312 443,-318 437,-324 431,-324"/>
<text text-anchor="middle" x="385" y="-303.5" font-family="sans" font-size="10.00">align_reads_to_asmfa</text>
</g>
<!-- 2&#45;&gt;0 -->
<g id="edge2" class="edge"><title>2&#45;&gt;0</title>
<path fill="none" stroke="grey" stroke-width="2" d="M356.433,-287.84C324.731,-266.929 275.361,-228.331 255,-180 236.352,-135.735 223.75,-111.555 251,-72 273.675,-39.0873 319.729,-26.5988 352.611,-21.8686"/>
<polygon fill="grey" stroke="grey" stroke-width="2" points="353.293,-25.3104 362.778,-20.5894 352.419,-18.3652 353.293,-25.3104"/>
</g>
<!-- 9 -->
<g id="node10" class="node"><title>9</title>
<path fill="none" stroke="#56c9d8" stroke-width="2" d="M428,-252C428,-252 342,-252 342,-252 336,-252 330,-246 330,-240 330,-240 330,-228 330,-228 330,-222 336,-216 342,-216 342,-216 428,-216 428,-216 434,-216 440,-222 440,-228 440,-228 440,-240 440,-240 440,-246 434,-252 428,-252"/>
<text text-anchor="middle" x="385" y="-231.5" font-family="sans" font-size="10.00">coverage_metabat2</text>
</g>
<!-- 2&#45;&gt;9 -->
<g id="edge21" class="edge"><title>2&#45;&gt;9</title>
<path fill="none" stroke="grey" stroke-width="2" d="M385,-287.697C385,-279.983 385,-270.712 385,-262.112"/>
<polygon fill="grey" stroke="grey" stroke-width="2" points="388.5,-262.104 385,-252.104 381.5,-262.104 388.5,-262.104"/>
</g>
<!-- 3 -->
<g id="node4" class="node"><title>3</title>
<path fill="none" stroke="#566bd8" stroke-width="2" d="M640,-108C640,-108 558,-108 558,-108 552,-108 546,-102 546,-96 546,-96 546,-84 546,-84 546,-78 552,-72 558,-72 558,-72 640,-72 640,-72 646,-72 652,-78 652,-84 652,-84 652,-96 652,-96 652,-102 646,-108 640,-108"/>
<text text-anchor="middle" x="599" y="-87.5" font-family="sans" font-size="10.00">checkm_lineage_wf</text>
</g>
<!-- 3&#45;&gt;0 -->
<g id="edge3" class="edge"><title>3&#45;&gt;0</title>
<path fill="none" stroke="grey" stroke-width="2" d="M548.14,-71.9656C510.691,-59.4227 460.631,-42.6564 426.952,-31.3763"/>
<polygon fill="grey" stroke="grey" stroke-width="2" points="427.652,-27.9196 417.058,-28.0624 425.429,-34.5572 427.652,-27.9196"/>
</g>
<!-- 4 -->
<g id="node5" class="node"><title>4</title>
<path fill="none" stroke="#d8b456" stroke-width="2" d="M706,-540C706,-540 628,-540 628,-540 622,-540 616,-534 616,-528 616,-528 616,-516 616,-516 616,-510 622,-504 628,-504 628,-504 706,-504 706,-504 712,-504 718,-510 718,-516 718,-516 718,-528 718,-528 718,-534 712,-540 706,-540"/>
<text text-anchor="middle" x="667" y="-525" font-family="sans" font-size="10.00">trimming_fastp</text>
<text text-anchor="middle" x="667" y="-514" font-family="sans" font-size="10.00">sample: simulation</text>
</g>
<!-- 4&#45;&gt;0 -->
<g id="edge4" class="edge"><title>4&#45;&gt;0</title>
<path fill="none" stroke="grey" stroke-width="2" d="M669.503,-503.867C679.913,-429.908 716.699,-138.733 661,-72 631.622,-36.8023 494.866,-24.6142 427.584,-20.701"/>
<polygon fill="grey" stroke="grey" stroke-width="2" points="427.586,-17.1959 417.409,-20.1417 427.202,-24.1854 427.586,-17.1959"/>
</g>
<!-- 4&#45;&gt;2 -->
<g id="edge15" class="edge"><title>4&#45;&gt;2</title>
<path fill="none" stroke="grey" stroke-width="2" d="M644.399,-503.849C594.176,-465.736 473.221,-373.948 415.999,-330.524"/>
<polygon fill="grey" stroke="grey" stroke-width="2" points="417.79,-327.489 407.708,-324.232 413.558,-333.066 417.79,-327.489"/>
</g>
<!-- 11 -->
<g id="node12" class="node"><title>11</title>
<path fill="none" stroke="#d86e56" stroke-width="2" d="M467,-468C467,-468 389,-468 389,-468 383,-468 377,-462 377,-456 377,-456 377,-444 377,-444 377,-438 383,-432 389,-432 389,-432 467,-432 467,-432 473,-432 479,-438 479,-444 479,-444 479,-456 479,-456 479,-462 473,-468 467,-468"/>
<text text-anchor="middle" x="428" y="-447.5" font-family="sans" font-size="10.00">assembly_megahit</text>
</g>
<!-- 4&#45;&gt;11 -->
<g id="edge23" class="edge"><title>4&#45;&gt;11</title>
<path fill="none" stroke="grey" stroke-width="2" d="M615.729,-505.983C578.554,-495.095 528.131,-480.327 488.904,-468.838"/>
<polygon fill="grey" stroke="grey" stroke-width="2" points="489.767,-465.444 479.187,-465.992 487.8,-472.162 489.767,-465.444"/>
</g>
<!-- 12 -->
<g id="node13" class="node"><title>12</title>
<path fill="none" stroke="#56d8b1" stroke-width="2" d="M803,-396C803,-396 707,-396 707,-396 701,-396 695,-390 695,-384 695,-384 695,-372 695,-372 695,-366 701,-360 707,-360 707,-360 803,-360 803,-360 809,-360 815,-366 815,-372 815,-372 815,-384 815,-384 815,-390 809,-396 803,-396"/>
<text text-anchor="middle" x="755" y="-375.5" font-family="sans" font-size="10.00">assembly_metaspades</text>
</g>
<!-- 4&#45;&gt;12 -->
<g id="edge24" class="edge"><title>4&#45;&gt;12</title>
<path fill="none" stroke="grey" stroke-width="2" d="M677.615,-503.871C692.877,-479.244 721.14,-433.638 738.959,-404.885"/>
<polygon fill="grey" stroke="grey" stroke-width="2" points="742.055,-406.533 744.347,-396.189 736.105,-402.846 742.055,-406.533"/>
</g>
<!-- 13 -->
<g id="node14" class="node"><title>13</title>
<path fill="none" stroke="#d88556" stroke-width="2" d="M870,-324C870,-324 794,-324 794,-324 788,-324 782,-318 782,-312 782,-312 782,-300 782,-300 782,-294 788,-288 794,-288 794,-288 870,-288 870,-288 876,-288 882,-294 882,-300 882,-300 882,-312 882,-312 882,-318 876,-324 870,-324"/>
<text text-anchor="middle" x="832" y="-303.5" font-family="sans" font-size="10.00">assembly_idba_ud</text>
</g>
<!-- 4&#45;&gt;13 -->
<g id="edge25" class="edge"><title>4&#45;&gt;13</title>
<path fill="none" stroke="grey" stroke-width="2" d="M702.418,-503.848C739.747,-483.685 796.824,-446.461 824,-396 834.146,-377.16 835.681,-352.786 834.939,-334.31"/>
<polygon fill="grey" stroke="grey" stroke-width="2" points="838.424,-333.953 834.287,-324.199 831.438,-334.404 838.424,-333.953"/>
</g>
<!-- 5 -->
<g id="node6" class="node"><title>5</title>
<path fill="none" stroke="#88d856" stroke-width="2" d="M509.5,-180C509.5,-180 432.5,-180 432.5,-180 426.5,-180 420.5,-174 420.5,-168 420.5,-168 420.5,-156 420.5,-156 420.5,-150 426.5,-144 432.5,-144 432.5,-144 509.5,-144 509.5,-144 515.5,-144 521.5,-150 521.5,-156 521.5,-156 521.5,-168 521.5,-168 521.5,-174 515.5,-180 509.5,-180"/>
<text text-anchor="middle" x="471" y="-159.5" font-family="sans" font-size="10.00">binning_metabat2</text>
</g>
<!-- 5&#45;&gt;0 -->
<g id="edge5" class="edge"><title>5&#45;&gt;0</title>
<path fill="none" stroke="grey" stroke-width="2" d="M461.23,-143.871C447.181,-119.244 421.167,-73.6377 404.765,-44.8845"/>
<polygon fill="grey" stroke="grey" stroke-width="2" points="407.8,-43.1413 399.805,-36.1893 401.72,-46.6097 407.8,-43.1413"/>
</g>
<!-- 5&#45;&gt;3 -->
<g id="edge16" class="edge"><title>5&#45;&gt;3</title>
<path fill="none" stroke="grey" stroke-width="2" d="M502.312,-143.876C519.203,-134.639 540.247,-123.131 558.385,-113.212"/>
<polygon fill="grey" stroke="grey" stroke-width="2" points="560.473,-116.059 567.567,-108.19 557.114,-109.917 560.473,-116.059"/>
</g>
<!-- 7 -->
<g id="node8" class="node"><title>7</title>
<path fill="none" stroke="#9fd856" stroke-width="2" d="M516,-108C516,-108 468,-108 468,-108 462,-108 456,-102 456,-96 456,-96 456,-84 456,-84 456,-78 462,-72 468,-72 468,-72 516,-72 516,-72 522,-72 528,-78 528,-84 528,-84 528,-96 528,-96 528,-102 522,-108 516,-108"/>
<text text-anchor="middle" x="492" y="-87.5" font-family="sans" font-size="10.00">prokka_bins</text>
</g>
<!-- 5&#45;&gt;7 -->
<g id="edge20" class="edge"><title>5&#45;&gt;7</title>
<path fill="none" stroke="grey" stroke-width="2" d="M476.191,-143.697C478.531,-135.898 481.347,-126.509 483.951,-117.829"/>
<polygon fill="grey" stroke="grey" stroke-width="2" points="487.348,-118.688 486.869,-108.104 480.643,-116.677 487.348,-118.688"/>
</g>
<!-- 6&#45;&gt;0 -->
<g id="edge6" class="edge"><title>6&#45;&gt;0</title>
<path fill="none" stroke="grey" stroke-width="2" d="M108.133,-75.2089C112.816,-74.0941 117.487,-73.0096 122,-72 204.056,-53.6411 300.991,-35.2919 352.843,-25.7437"/>
<polygon fill="grey" stroke="grey" stroke-width="2" points="353.694,-29.146 362.898,-23.8985 352.431,-22.261 353.694,-29.146"/>
</g>
<!-- 7&#45;&gt;0 -->
<g id="edge7" class="edge"><title>7&#45;&gt;0</title>
<path fill="none" stroke="grey" stroke-width="2" d="M467.048,-71.8761C453.958,-62.8931 437.74,-51.7625 423.564,-42.0341"/>
<polygon fill="grey" stroke="grey" stroke-width="2" points="425.274,-38.9624 415.048,-36.1898 421.313,-44.734 425.274,-38.9624"/>
</g>
<!-- 8 -->
<g id="node9" class="node"><title>8</title>
<path fill="none" stroke="#d89c56" stroke-width="2" d="M379,-180C379,-180 301,-180 301,-180 295,-180 289,-174 289,-168 289,-168 289,-156 289,-156 289,-150 295,-144 301,-144 301,-144 379,-144 379,-144 385,-144 391,-150 391,-156 391,-156 391,-168 391,-168 391,-174 385,-180 379,-180"/>
<text text-anchor="middle" x="340" y="-165" font-family="sans" font-size="10.00">fastqc</text>
<text text-anchor="middle" x="340" y="-154" font-family="sans" font-size="10.00">sample: simulation</text>
</g>
<!-- 8&#45;&gt;0 -->
<g id="edge8" class="edge"><title>8&#45;&gt;0</title>
<path fill="none" stroke="grey" stroke-width="2" d="M351.348,-143.97C357.631,-133.877 365.131,-120.627 370,-108 377.728,-87.9605 382.881,-64.1753 386.018,-46.2372"/>
<polygon fill="grey" stroke="grey" stroke-width="2" points="389.505,-46.603 387.677,-36.1672 382.598,-45.4656 389.505,-46.603"/>
</g>
<!-- 10 -->
<g id="node11" class="node"><title>10</title>
<path fill="none" stroke="#56d882" stroke-width="2" d="M349.5,-108C349.5,-108 290.5,-108 290.5,-108 284.5,-108 278.5,-102 278.5,-96 278.5,-96 278.5,-84 278.5,-84 278.5,-78 284.5,-72 290.5,-72 290.5,-72 349.5,-72 349.5,-72 355.5,-72 361.5,-78 361.5,-84 361.5,-84 361.5,-96 361.5,-96 361.5,-102 355.5,-108 349.5,-108"/>
<text text-anchor="middle" x="320" y="-87.5" font-family="sans" font-size="10.00">multiqc_fastqc</text>
</g>
<!-- 8&#45;&gt;10 -->
<g id="edge22" class="edge"><title>8&#45;&gt;10</title>
<path fill="none" stroke="grey" stroke-width="2" d="M335.056,-143.697C332.828,-135.898 330.145,-126.509 327.665,-117.829"/>
<polygon fill="grey" stroke="grey" stroke-width="2" points="331,-116.758 324.887,-108.104 324.269,-118.681 331,-116.758"/>
</g>
<!-- 9&#45;&gt;0 -->
<g id="edge9" class="edge"><title>9&#45;&gt;0</title>
<path fill="none" stroke="grey" stroke-width="2" d="M329.999,-216.841C311.381,-208.699 292.228,-196.861 280,-180 251.673,-140.942 242.6,-112.385 269,-72 287.441,-43.7907 324.582,-30.5033 352.877,-24.3018"/>
<polygon fill="grey" stroke="grey" stroke-width="2" points="353.723,-27.7024 362.851,-22.3232 352.361,-20.8362 353.723,-27.7024"/>
</g>
<!-- 9&#45;&gt;5 -->
<g id="edge18" class="edge"><title>9&#45;&gt;5</title>
<path fill="none" stroke="grey" stroke-width="2" d="M406.258,-215.697C417.089,-206.881 430.418,-196.032 442.16,-186.474"/>
<polygon fill="grey" stroke="grey" stroke-width="2" points="444.44,-189.132 449.986,-180.104 440.021,-183.703 444.44,-189.132"/>
</g>
<!-- 10&#45;&gt;0 -->
<g id="edge10" class="edge"><title>10&#45;&gt;0</title>
<path fill="none" stroke="grey" stroke-width="2" d="M337.303,-71.6966C345.865,-63.135 356.344,-52.6562 365.696,-43.3045"/>
<polygon fill="grey" stroke="grey" stroke-width="2" points="368.299,-45.6503 372.896,-36.1043 363.35,-40.7005 368.299,-45.6503"/>
</g>
<!-- 11&#45;&gt;0 -->
<g id="edge11" class="edge"><title>11&#45;&gt;0</title>
<path fill="none" stroke="grey" stroke-width="2" d="M376.905,-443.36C302.733,-432.019 174,-399.074 174,-307 174,-307 174,-307 174,-161 174,-76.5773 290.636,-39.5507 352.491,-25.8503"/>
<polygon fill="grey" stroke="grey" stroke-width="2" points="353.585,-29.1965 362.643,-23.702 352.135,-22.3481 353.585,-29.1965"/>
</g>
<!-- 11&#45;&gt;5 -->
<g id="edge17" class="edge"><title>11&#45;&gt;5</title>
<path fill="none" stroke="grey" stroke-width="2" d="M435.421,-431.651C439.478,-421.451 444.228,-408.201 447,-396 463.613,-322.887 468.745,-234.229 470.317,-190.342"/>
<polygon fill="grey" stroke="grey" stroke-width="2" points="473.82,-190.293 470.644,-180.185 466.823,-190.067 473.82,-190.293"/>
</g>
<!-- 14 -->
<g id="node15" class="node"><title>14</title>
<path fill="none" stroke="#56d86b" stroke-width="2" d="M426.5,-396C426.5,-396 349.5,-396 349.5,-396 343.5,-396 337.5,-390 337.5,-384 337.5,-384 337.5,-372 337.5,-372 337.5,-366 343.5,-360 349.5,-360 349.5,-360 426.5,-360 426.5,-360 432.5,-360 438.5,-366 438.5,-372 438.5,-372 438.5,-384 438.5,-384 438.5,-390 432.5,-396 426.5,-396"/>
<text text-anchor="middle" x="388" y="-375.5" font-family="sans" font-size="10.00">build_asmfa_index</text>
</g>
<!-- 11&#45;&gt;14 -->
<g id="edge26" class="edge"><title>11&#45;&gt;14</title>
<path fill="none" stroke="grey" stroke-width="2" d="M418.112,-431.697C413.511,-423.644 407.94,-413.894 402.847,-404.982"/>
<polygon fill="grey" stroke="grey" stroke-width="2" points="405.774,-403.05 397.774,-396.104 399.696,-406.523 405.774,-403.05"/>
</g>
<!-- 12&#45;&gt;0 -->
<g id="edge12" class="edge"><title>12&#45;&gt;0</title>
<path fill="none" stroke="grey" stroke-width="2" d="M752.629,-359.99C749.132,-333.383 743,-280.275 743,-235 743,-235 743,-235 743,-161 743,-115.846 730.748,-98.2386 694,-72 651.699,-41.7967 498.872,-26.9304 427.371,-21.5034"/>
<polygon fill="grey" stroke="grey" stroke-width="2" points="427.259,-17.9857 417.029,-20.7415 426.744,-24.9668 427.259,-17.9857"/>
</g>
<!-- 13&#45;&gt;0 -->
<g id="edge13" class="edge"><title>13&#45;&gt;0</title>
<path fill="none" stroke="grey" stroke-width="2" d="M832.184,-287.955C831.649,-244.374 823.713,-128.352 757,-72 707.656,-30.32 510.173,-21.4175 427.109,-19.5162"/>
<polygon fill="grey" stroke="grey" stroke-width="2" points="427.17,-16.0168 417.099,-19.3086 427.025,-23.0153 427.17,-16.0168"/>
</g>
<!-- 14&#45;&gt;2 -->
<g id="edge14" class="edge"><title>14&#45;&gt;2</title>
<path fill="none" stroke="grey" stroke-width="2" d="M387.258,-359.697C386.928,-351.983 386.531,-342.712 386.162,-334.112"/>
<polygon fill="grey" stroke="grey" stroke-width="2" points="389.658,-333.945 385.733,-324.104 382.665,-334.245 389.658,-333.945"/>
</g>
</g>
</svg>
