<?xml version="1.0" encoding="UTF-8" standalone="no"?>
<!DOCTYPE svg PUBLIC "-//W3C//DTD SVG 1.1//EN"
 "http://www.w3.org/Graphics/SVG/1.1/DTD/svg11.dtd">
<!-- Generated by graphviz version 2.38.0 (20140413.2041)
 -->
<!-- Title: snakemake_dag Pages: 1 -->
<svg width="789pt" height="764pt"
 viewBox="0.00 0.00 789.22 764.00" xmlns="http://www.w3.org/2000/svg" xmlns:xlink="http://www.w3.org/1999/xlink">
<g id="graph0" class="graph" transform="scale(1 1) rotate(0) translate(4 760)">
<title>snakemake_dag</title>
<polygon fill="white" stroke="none" points="-4,4 -4,-760 785.216,-760 785.216,4 -4,4"/>
<!-- 0 -->
<g id="node1" class="node"><title>0</title>
<path fill="none" stroke="#5682d8" stroke-width="2" d="M414.716,-36C414.716,-36 384.716,-36 384.716,-36 378.716,-36 372.716,-30 372.716,-24 372.716,-24 372.716,-12 372.716,-12 372.716,-6 378.716,-0 384.716,-0 384.716,-0 414.716,-0 414.716,-0 420.716,-0 426.716,-6 426.716,-12 426.716,-12 426.716,-24 426.716,-24 426.716,-30 420.716,-36 414.716,-36"/>
<text text-anchor="middle" x="399.716" y="-15.5" font-family="sans" font-size="10.00">all</text>
</g>
<!-- 1 -->
<g id="node2" class="node"><title>1</title>
<path fill="none" stroke="#56b1d8" stroke-width="2" d="M387.716,-108C387.716,-108 305.716,-108 305.716,-108 299.716,-108 293.716,-102 293.716,-96 293.716,-96 293.716,-84 293.716,-84 293.716,-78 299.716,-72 305.716,-72 305.716,-72 387.716,-72 387.716,-72 393.716,-72 399.716,-78 399.716,-84 399.716,-84 399.716,-96 399.716,-96 399.716,-102 393.716,-108 387.716,-108"/>
<text text-anchor="middle" x="346.716" y="-87.5" font-family="sans" font-size="10.00">checkm_lineage_wf</text>
</g>
<!-- 1&#45;&gt;0 -->
<g id="edge1" class="edge"><title>1&#45;&gt;0</title>
<path fill="none" stroke="grey" stroke-width="2" d="M359.817,-71.6966C366.107,-63.3893 373.764,-53.2771 380.681,-44.1407"/>
<polygon fill="grey" stroke="grey" stroke-width="2" points="383.52,-46.1897 386.766,-36.1043 377.939,-41.9642 383.52,-46.1897"/>
</g>
<!-- 2 -->
<g id="node3" class="node"><title>2</title>
<path fill="none" stroke="#56d8a2" stroke-width="2" d="M111.716,-108C111.716,-108 27.7163,-108 27.7163,-108 21.7163,-108 15.7163,-102 15.7163,-96 15.7163,-96 15.7163,-84 15.7163,-84 15.7163,-78 21.7163,-72 27.7163,-72 27.7163,-72 111.716,-72 111.716,-72 117.716,-72 123.716,-78 123.716,-84 123.716,-84 123.716,-96 123.716,-96 123.716,-102 117.716,-108 111.716,-108"/>
<text text-anchor="middle" x="69.7163" y="-87.5" font-family="sans" font-size="10.00">metaphlan2_merge</text>
</g>
<!-- 2&#45;&gt;0 -->
<g id="edge2" class="edge"><title>2&#45;&gt;0</title>
<path fill="none" stroke="grey" stroke-width="2" d="M123.854,-75.2303C128.536,-74.1108 133.206,-73.0195 137.716,-72 217.543,-53.9575 311.719,-35.6222 362.594,-25.9594"/>
<polygon fill="grey" stroke="grey" stroke-width="2" points="363.299,-29.3881 372.473,-24.0887 361.997,-22.5103 363.299,-29.3881"/>
</g>
<!-- 3 -->
<g id="node4" class="node"><title>3</title>
<path fill="none" stroke="#78d856" stroke-width="2" d="M111.716,-180C111.716,-180 17.7163,-180 17.7163,-180 11.7163,-180 5.71632,-174 5.71632,-168 5.71632,-168 5.71632,-156 5.71632,-156 5.71632,-150 11.7163,-144 17.7163,-144 17.7163,-144 111.716,-144 111.716,-144 117.716,-144 123.716,-150 123.716,-156 123.716,-156 123.716,-168 123.716,-168 123.716,-174 117.716,-180 111.716,-180"/>
<text text-anchor="middle" x="64.7163" y="-165" font-family="sans" font-size="10.00">metaphlan2_profilling</text>
<text text-anchor="middle" x="64.7163" y="-154" font-family="sans" font-size="10.00">sample: simulation</text>
</g>
<!-- 3&#45;&gt;0 -->
<g id="edge3" class="edge"><title>3&#45;&gt;0</title>
<path fill="none" stroke="grey" stroke-width="2" d="M40.3481,-143.942C16.5718,-125.26 -13.312,-94.9106 6.71632,-72 29.977,-45.3919 268.762,-27.3703 362.365,-21.2794"/>
<polygon fill="grey" stroke="grey" stroke-width="2" points="362.764,-24.7611 372.519,-20.6285 362.316,-17.7754 362.764,-24.7611"/>
</g>
<!-- 3&#45;&gt;2 -->
<g id="edge16" class="edge"><title>3&#45;&gt;2</title>
<path fill="none" stroke="grey" stroke-width="2" d="M65.9523,-143.697C66.5033,-135.983 67.1654,-126.712 67.7797,-118.112"/>
<polygon fill="grey" stroke="grey" stroke-width="2" points="71.2731,-118.328 68.4946,-108.104 64.2909,-117.83 71.2731,-118.328"/>
</g>
<!-- 4 -->
<g id="node5" class="node"><title>4</title>
<path fill="none" stroke="#566bd8" stroke-width="2" stroke-dasharray="5,2" d="M476.716,-540C476.716,-540 398.716,-540 398.716,-540 392.716,-540 386.716,-534 386.716,-528 386.716,-528 386.716,-516 386.716,-516 386.716,-510 392.716,-504 398.716,-504 398.716,-504 476.716,-504 476.716,-504 482.716,-504 488.716,-510 488.716,-516 488.716,-516 488.716,-528 488.716,-528 488.716,-534 482.716,-540 476.716,-540"/>
<text text-anchor="middle" x="437.716" y="-525" font-family="sans" font-size="10.00">trimming_fastp</text>
<text text-anchor="middle" x="437.716" y="-514" font-family="sans" font-size="10.00">sample: simulation</text>
</g>
<!-- 4&#45;&gt;0 -->
<g id="edge4" class="edge"><title>4&#45;&gt;0</title>
<path fill="none" stroke="grey" stroke-width="2" d="M452.463,-503.55C460.514,-493.535 470.32,-480.501 477.716,-468 538.83,-364.716 583.805,-335.666 574.716,-216 569.813,-151.443 594.15,-121.748 552.716,-72 524.144,-37.6937 472.135,-25.5552 436.767,-21.283"/>
<polygon fill="grey" stroke="grey" stroke-width="2" points="437.13,-17.802 426.818,-20.234 436.396,-24.7634 437.13,-17.802"/>
</g>
<!-- 6 -->
<g id="node7" class="node"><title>6</title>
<path fill="none" stroke="#56d87b" stroke-width="2" d="M680.716,-396C680.716,-396 604.716,-396 604.716,-396 598.716,-396 592.716,-390 592.716,-384 592.716,-384 592.716,-372 592.716,-372 592.716,-366 598.716,-360 604.716,-360 604.716,-360 680.716,-360 680.716,-360 686.716,-360 692.716,-366 692.716,-372 692.716,-372 692.716,-384 692.716,-384 692.716,-390 686.716,-396 680.716,-396"/>
<text text-anchor="middle" x="642.716" y="-375.5" font-family="sans" font-size="10.00">assembly_idba_ud</text>
</g>
<!-- 4&#45;&gt;6 -->
<g id="edge20" class="edge"><title>4&#45;&gt;6</title>
<path fill="none" stroke="grey" stroke-width="2" d="M488.955,-509.57C517.439,-501.392 552.346,-488.191 578.716,-468 600.762,-451.12 618.467,-424.574 629.618,-404.861"/>
<polygon fill="grey" stroke="grey" stroke-width="2" points="632.694,-406.53 634.414,-396.076 626.55,-403.176 632.694,-406.53"/>
</g>
<!-- 7 -->
<g id="node8" class="node"><title>7</title>
<path fill="none" stroke="#a7d856" stroke-width="2" stroke-dasharray="5,2" d="M180.716,-324C180.716,-324 126.716,-324 126.716,-324 120.716,-324 114.716,-318 114.716,-312 114.716,-312 114.716,-300 114.716,-300 114.716,-294 120.716,-288 126.716,-288 126.716,-288 180.716,-288 180.716,-288 186.716,-288 192.716,-294 192.716,-300 192.716,-300 192.716,-312 192.716,-312 192.716,-318 186.716,-324 180.716,-324"/>
<text text-anchor="middle" x="153.716" y="-303.5" font-family="sans" font-size="10.00">multiqc_fastp</text>
</g>
<!-- 4&#45;&gt;7 -->
<g id="edge21" class="edge"><title>4&#45;&gt;7</title>
<path fill="none" stroke="grey" stroke-width="2" d="M386.499,-514.804C349.236,-508.211 299.138,-494.828 262.716,-468 214.647,-432.592 180.969,-369.258 164.743,-333.489"/>
<polygon fill="grey" stroke="grey" stroke-width="2" points="167.872,-331.911 160.631,-324.177 161.469,-334.738 167.872,-331.911"/>
</g>
<!-- 8 -->
<g id="node9" class="node"><title>8</title>
<path fill="none" stroke="#61d856" stroke-width="2" stroke-dasharray="5,2" d="M317.716,-324C317.716,-324 225.716,-324 225.716,-324 219.716,-324 213.716,-318 213.716,-312 213.716,-312 213.716,-300 213.716,-300 213.716,-294 219.716,-288 225.716,-288 225.716,-288 317.716,-288 317.716,-288 323.716,-288 329.716,-294 329.716,-300 329.716,-300 329.716,-312 329.716,-312 329.716,-318 323.716,-324 317.716,-324"/>
<text text-anchor="middle" x="271.716" y="-303.5" font-family="sans" font-size="10.00">align_reads_to_asmfa</text>
</g>
<!-- 4&#45;&gt;8 -->
<g id="edge23" class="edge"><title>4&#45;&gt;8</title>
<path fill="none" stroke="grey" stroke-width="2" d="M386.373,-505.342C338.319,-487.549 269.711,-453.281 240.716,-396 230.365,-375.551 240.624,-350.834 252.036,-332.641"/>
<polygon fill="grey" stroke="grey" stroke-width="2" points="254.98,-334.536 257.647,-324.282 249.168,-330.635 254.98,-334.536"/>
</g>
<!-- 11 -->
<g id="node12" class="node"><title>11</title>
<path fill="none" stroke="#d8c356" stroke-width="2" stroke-dasharray="5,2" d="M437.716,-468C437.716,-468 359.716,-468 359.716,-468 353.716,-468 347.716,-462 347.716,-456 347.716,-456 347.716,-444 347.716,-444 347.716,-438 353.716,-432 359.716,-432 359.716,-432 437.716,-432 437.716,-432 443.716,-432 449.716,-438 449.716,-444 449.716,-444 449.716,-456 449.716,-456 449.716,-462 443.716,-468 437.716,-468"/>
<text text-anchor="middle" x="398.716" y="-447.5" font-family="sans" font-size="10.00">assembly_megahit</text>
</g>
<!-- 4&#45;&gt;11 -->
<g id="edge27" class="edge"><title>4&#45;&gt;11</title>
<path fill="none" stroke="grey" stroke-width="2" d="M428.076,-503.697C423.589,-495.644 418.158,-485.894 413.192,-476.982"/>
<polygon fill="grey" stroke="grey" stroke-width="2" points="416.17,-475.137 408.246,-468.104 410.055,-478.544 416.17,-475.137"/>
</g>
<!-- 12 -->
<g id="node13" class="node"><title>12</title>
<path fill="none" stroke="#56c9d8" stroke-width="2" d="M553.716,-252C553.716,-252 457.716,-252 457.716,-252 451.716,-252 445.716,-246 445.716,-240 445.716,-240 445.716,-228 445.716,-228 445.716,-222 451.716,-216 457.716,-216 457.716,-216 553.716,-216 553.716,-216 559.716,-216 565.716,-222 565.716,-228 565.716,-228 565.716,-240 565.716,-240 565.716,-246 559.716,-252 553.716,-252"/>
<text text-anchor="middle" x="505.716" y="-231.5" font-family="sans" font-size="10.00">assembly_metaspades</text>
</g>
<!-- 4&#45;&gt;12 -->
<g id="edge28" class="edge"><title>4&#45;&gt;12</title>
<path fill="none" stroke="grey" stroke-width="2" d="M445.516,-503.61C449.866,-493.396 455.116,-480.146 458.716,-468 480.338,-395.052 495.194,-306.321 501.815,-262.38"/>
<polygon fill="grey" stroke="grey" stroke-width="2" points="505.318,-262.616 503.32,-252.211 498.394,-261.591 505.318,-262.616"/>
</g>
<!-- 5 -->
<g id="node6" class="node"><title>5</title>
<path fill="none" stroke="#56d8d0" stroke-width="2" d="M759.716,-180C759.716,-180 681.716,-180 681.716,-180 675.716,-180 669.716,-174 669.716,-168 669.716,-168 669.716,-156 669.716,-156 669.716,-150 675.716,-144 681.716,-144 681.716,-144 759.716,-144 759.716,-144 765.716,-144 771.716,-150 771.716,-156 771.716,-156 771.716,-168 771.716,-168 771.716,-174 765.716,-180 759.716,-180"/>
<text text-anchor="middle" x="720.716" y="-165" font-family="sans" font-size="10.00">fastqc</text>
<text text-anchor="middle" x="720.716" y="-154" font-family="sans" font-size="10.00">sample: simulation</text>
</g>
<!-- 5&#45;&gt;0 -->
<g id="edge5" class="edge"><title>5&#45;&gt;0</title>
<path fill="none" stroke="grey" stroke-width="2" d="M711.195,-143.969C698.844,-123.534 675.328,-89.8056 645.716,-72 579.652,-32.2752 487.79,-22.1326 437.078,-19.665"/>
<polygon fill="grey" stroke="grey" stroke-width="2" points="437.041,-16.1606 426.906,-19.247 436.754,-23.1547 437.041,-16.1606"/>
</g>
<!-- 14 -->
<g id="node15" class="node"><title>14</title>
<path fill="none" stroke="#d89c56" stroke-width="2" d="M769.216,-108C769.216,-108 710.216,-108 710.216,-108 704.216,-108 698.216,-102 698.216,-96 698.216,-96 698.216,-84 698.216,-84 698.216,-78 704.216,-72 710.216,-72 710.216,-72 769.216,-72 769.216,-72 775.216,-72 781.216,-78 781.216,-84 781.216,-84 781.216,-96 781.216,-96 781.216,-102 775.216,-108 769.216,-108"/>
<text text-anchor="middle" x="739.716" y="-87.5" font-family="sans" font-size="10.00">multiqc_fastqc</text>
</g>
<!-- 5&#45;&gt;14 -->
<g id="edge30" class="edge"><title>5&#45;&gt;14</title>
<path fill="none" stroke="grey" stroke-width="2" d="M725.413,-143.697C727.53,-135.898 730.078,-126.509 732.434,-117.829"/>
<polygon fill="grey" stroke="grey" stroke-width="2" points="735.832,-118.672 735.074,-108.104 729.076,-116.838 735.832,-118.672"/>
</g>
<!-- 6&#45;&gt;0 -->
<g id="edge6" class="edge"><title>6&#45;&gt;0</title>
<path fill="none" stroke="grey" stroke-width="2" d="M640.543,-359.984C637.337,-333.369 631.716,-280.25 631.716,-235 631.716,-235 631.716,-235 631.716,-161 631.716,-120.031 636.886,-100.767 607.716,-72 583.775,-48.3888 490.22,-31.7283 437.099,-23.9525"/>
<polygon fill="grey" stroke="grey" stroke-width="2" points="437.441,-20.4659 427.047,-22.5164 436.451,-27.3955 437.441,-20.4659"/>
</g>
<!-- 7&#45;&gt;0 -->
<g id="edge7" class="edge"><title>7&#45;&gt;0</title>
<path fill="none" stroke="grey" stroke-width="2" d="M153.731,-287.954C154.743,-244.874 163.664,-130.886 227.716,-72 265.038,-37.6888 324.139,-25.5802 362.423,-21.3131"/>
<polygon fill="grey" stroke="grey" stroke-width="2" points="363.026,-24.7708 372.634,-20.3056 362.338,-17.8046 363.026,-24.7708"/>
</g>
<!-- 8&#45;&gt;0 -->
<g id="edge8" class="edge"><title>8&#45;&gt;0</title>
<path fill="none" stroke="grey" stroke-width="2" d="M241.417,-287.805C228.838,-278.898 215.593,-266.772 208.716,-252 182.36,-195.384 216.84,-114.089 257.716,-72 285.634,-43.2534 330.586,-29.9527 362.427,-23.8938"/>
<polygon fill="grey" stroke="grey" stroke-width="2" points="363.429,-27.2719 372.679,-22.1049 362.226,-20.3761 363.429,-27.2719"/>
</g>
<!-- 10 -->
<g id="node11" class="node"><title>10</title>
<path fill="none" stroke="#56d892" stroke-width="2" stroke-dasharray="5,2" d="M315.716,-252C315.716,-252 229.716,-252 229.716,-252 223.716,-252 217.716,-246 217.716,-240 217.716,-240 217.716,-228 217.716,-228 217.716,-222 223.716,-216 229.716,-216 229.716,-216 315.716,-216 315.716,-216 321.716,-216 327.716,-222 327.716,-228 327.716,-228 327.716,-240 327.716,-240 327.716,-246 321.716,-252 315.716,-252"/>
<text text-anchor="middle" x="272.716" y="-231.5" font-family="sans" font-size="10.00">coverage_metabat2</text>
</g>
<!-- 8&#45;&gt;10 -->
<g id="edge26" class="edge"><title>8&#45;&gt;10</title>
<path fill="none" stroke="grey" stroke-width="2" d="M271.964,-287.697C272.074,-279.983 272.206,-270.712 272.329,-262.112"/>
<polygon fill="grey" stroke="grey" stroke-width="2" points="275.829,-262.153 272.472,-252.104 268.829,-262.053 275.829,-262.153"/>
</g>
<!-- 9 -->
<g id="node10" class="node"><title>9</title>
<path fill="none" stroke="#d6d856" stroke-width="2" stroke-dasharray="5,2" d="M385.216,-180C385.216,-180 308.216,-180 308.216,-180 302.216,-180 296.216,-174 296.216,-168 296.216,-168 296.216,-156 296.216,-156 296.216,-150 302.216,-144 308.216,-144 308.216,-144 385.216,-144 385.216,-144 391.216,-144 397.216,-150 397.216,-156 397.216,-156 397.216,-168 397.216,-168 397.216,-174 391.216,-180 385.216,-180"/>
<text text-anchor="middle" x="346.716" y="-159.5" font-family="sans" font-size="10.00">binning_metabat2</text>
</g>
<!-- 9&#45;&gt;0 -->
<g id="edge9" class="edge"><title>9&#45;&gt;0</title>
<path fill="none" stroke="grey" stroke-width="2" d="M317.212,-143.937C304.734,-134.988 291.531,-122.79 284.716,-108 278.021,-93.4682 276.089,-85.475 284.716,-72 301.796,-45.3224 336.082,-31.8853 362.794,-25.2354"/>
<polygon fill="grey" stroke="grey" stroke-width="2" points="363.633,-28.6341 372.609,-23.0056 362.082,-21.808 363.633,-28.6341"/>
</g>
<!-- 9&#45;&gt;1 -->
<g id="edge15" class="edge"><title>9&#45;&gt;1</title>
<path fill="none" stroke="grey" stroke-width="2" d="M346.716,-143.697C346.716,-135.983 346.716,-126.712 346.716,-118.112"/>
<polygon fill="grey" stroke="grey" stroke-width="2" points="350.216,-118.104 346.716,-108.104 343.216,-118.104 350.216,-118.104"/>
</g>
<!-- 13 -->
<g id="node14" class="node"><title>13</title>
<path fill="none" stroke="#8fd856" stroke-width="2" stroke-dasharray="5,2" d="M477.716,-108C477.716,-108 429.716,-108 429.716,-108 423.716,-108 417.716,-102 417.716,-96 417.716,-96 417.716,-84 417.716,-84 417.716,-78 423.716,-72 429.716,-72 429.716,-72 477.716,-72 477.716,-72 483.716,-72 489.716,-78 489.716,-84 489.716,-84 489.716,-96 489.716,-96 489.716,-102 483.716,-108 477.716,-108"/>
<text text-anchor="middle" x="453.716" y="-87.5" font-family="sans" font-size="10.00">prokka_bins</text>
</g>
<!-- 9&#45;&gt;13 -->
<g id="edge29" class="edge"><title>9&#45;&gt;13</title>
<path fill="none" stroke="grey" stroke-width="2" d="M372.891,-143.876C386.752,-134.808 403.958,-123.552 418.927,-113.759"/>
<polygon fill="grey" stroke="grey" stroke-width="2" points="420.988,-116.593 427.441,-108.19 417.156,-110.735 420.988,-116.593"/>
</g>
<!-- 10&#45;&gt;0 -->
<g id="edge10" class="edge"><title>10&#45;&gt;0</title>
<path fill="none" stroke="grey" stroke-width="2" d="M267.429,-215.698C258.898,-184.111 245.887,-116.287 275.716,-72 295.053,-43.2919 333.412,-30.0658 362.373,-24.0143"/>
<polygon fill="grey" stroke="grey" stroke-width="2" points="363.386,-27.3851 372.565,-22.0941 362.09,-20.5062 363.386,-27.3851"/>
</g>
<!-- 10&#45;&gt;9 -->
<g id="edge25" class="edge"><title>10&#45;&gt;9</title>
<path fill="none" stroke="grey" stroke-width="2" d="M291.008,-215.697C300.149,-207.05 311.356,-196.449 321.316,-187.027"/>
<polygon fill="grey" stroke="grey" stroke-width="2" points="323.775,-189.519 328.635,-180.104 318.965,-184.434 323.775,-189.519"/>
</g>
<!-- 11&#45;&gt;0 -->
<g id="edge11" class="edge"><title>11&#45;&gt;0</title>
<path fill="none" stroke="grey" stroke-width="2" d="M399.421,-431.813C401.477,-392.499 409.203,-293.434 436.716,-216 455.247,-163.847 484.457,-161.479 498.716,-108 502.838,-92.5401 506.937,-85.7264 498.716,-72 485.278,-49.5635 458.739,-36.0877 436.519,-28.3425"/>
<polygon fill="grey" stroke="grey" stroke-width="2" points="437.586,-25.0092 426.995,-25.27 435.437,-31.6712 437.586,-25.0092"/>
</g>
<!-- 11&#45;&gt;9 -->
<g id="edge24" class="edge"><title>11&#45;&gt;9</title>
<path fill="none" stroke="grey" stroke-width="2" d="M395.619,-431.966C386.933,-384.192 362.284,-248.623 351.674,-190.266"/>
<polygon fill="grey" stroke="grey" stroke-width="2" points="355.095,-189.519 349.863,-180.306 348.208,-190.771 355.095,-189.519"/>
</g>
<!-- 16 -->
<g id="node17" class="node"><title>16</title>
<path fill="none" stroke="#d85656" stroke-width="2" stroke-dasharray="5,2" d="M339.216,-396C339.216,-396 262.216,-396 262.216,-396 256.216,-396 250.216,-390 250.216,-384 250.216,-384 250.216,-372 250.216,-372 250.216,-366 256.216,-360 262.216,-360 262.216,-360 339.216,-360 339.216,-360 345.216,-360 351.216,-366 351.216,-372 351.216,-372 351.216,-384 351.216,-384 351.216,-390 345.216,-396 339.216,-396"/>
<text text-anchor="middle" x="300.716" y="-375.5" font-family="sans" font-size="10.00">build_asmfa_index</text>
</g>
<!-- 11&#45;&gt;16 -->
<g id="edge32" class="edge"><title>11&#45;&gt;16</title>
<path fill="none" stroke="grey" stroke-width="2" d="M374.743,-431.876C362.167,-422.893 346.584,-411.763 332.964,-402.034"/>
<polygon fill="grey" stroke="grey" stroke-width="2" points="334.954,-399.154 324.782,-396.19 330.885,-404.85 334.954,-399.154"/>
</g>
<!-- 12&#45;&gt;0 -->
<g id="edge12" class="edge"><title>12&#45;&gt;0</title>
<path fill="none" stroke="grey" stroke-width="2" d="M515.752,-215.797C532.624,-184.372 562.005,-116.801 531.716,-72 510.715,-40.9373 468.191,-28.0775 437.063,-22.7551"/>
<polygon fill="grey" stroke="grey" stroke-width="2" points="437.403,-19.2667 426.991,-21.2237 436.351,-26.1872 437.403,-19.2667"/>
</g>
<!-- 13&#45;&gt;0 -->
<g id="edge13" class="edge"><title>13&#45;&gt;0</title>
<path fill="none" stroke="grey" stroke-width="2" d="M440.368,-71.6966C433.96,-63.3893 426.159,-53.2771 419.111,-44.1407"/>
<polygon fill="grey" stroke="grey" stroke-width="2" points="421.79,-41.8844 412.911,-36.1043 416.248,-46.16 421.79,-41.8844"/>
</g>
<!-- 14&#45;&gt;0 -->
<g id="edge14" class="edge"><title>14&#45;&gt;0</title>
<path fill="none" stroke="grey" stroke-width="2" d="M697.962,-75.7748C693.178,-74.4235 688.355,-73.1333 683.716,-72 596.06,-50.5848 491.348,-33.0941 436.842,-24.5881"/>
<polygon fill="grey" stroke="grey" stroke-width="2" points="437.365,-21.1275 426.948,-23.0568 436.295,-28.0451 437.365,-21.1275"/>
</g>
<!-- 15 -->
<g id="node16" class="node"><title>15</title>
<path fill="none" stroke="#bed856" stroke-width="2" stroke-dasharray="5,2" d="M475.216,-612C475.216,-612 400.216,-612 400.216,-612 394.216,-612 388.216,-606 388.216,-600 388.216,-600 388.216,-588 388.216,-588 388.216,-582 394.216,-576 400.216,-576 400.216,-576 475.216,-576 475.216,-576 481.216,-576 487.216,-582 487.216,-588 487.216,-588 487.216,-600 487.216,-600 487.216,-606 481.216,-612 475.216,-612"/>
<text text-anchor="middle" x="437.716" y="-591.5" font-family="sans" font-size="10.00">genome_simulate</text>
</g>
<!-- 15&#45;&gt;3 -->
<g id="edge17" class="edge"><title>15&#45;&gt;3</title>
<path fill="none" stroke="grey" stroke-width="2" d="M387.867,-584.354C288.176,-565.643 73.7163,-517.646 73.7163,-451 73.7163,-451 73.7163,-451 73.7163,-305 73.7163,-264.916 70.1003,-218.594 67.4523,-190.048"/>
<polygon fill="grey" stroke="grey" stroke-width="2" points="70.9302,-189.649 66.4944,-180.027 63.962,-190.315 70.9302,-189.649"/>
</g>
<!-- 15&#45;&gt;4 -->
<g id="edge18" class="edge"><title>15&#45;&gt;4</title>
<path fill="none" stroke="grey" stroke-width="2" d="M437.716,-575.697C437.716,-567.983 437.716,-558.712 437.716,-550.112"/>
<polygon fill="grey" stroke="grey" stroke-width="2" points="441.216,-550.104 437.716,-540.104 434.216,-550.104 441.216,-550.104"/>
</g>
<!-- 15&#45;&gt;5 -->
<g id="edge19" class="edge"><title>15&#45;&gt;5</title>
<path fill="none" stroke="grey" stroke-width="2" d="M487.335,-590.11C568.498,-582.408 720.716,-554.206 720.716,-451 720.716,-451 720.716,-451 720.716,-305 720.716,-264.996 720.716,-218.653 720.716,-190.08"/>
<polygon fill="grey" stroke="grey" stroke-width="2" points="724.216,-190.049 720.716,-180.049 717.216,-190.049 724.216,-190.049"/>
</g>
<!-- 16&#45;&gt;8 -->
<g id="edge22" class="edge"><title>16&#45;&gt;8</title>
<path fill="none" stroke="grey" stroke-width="2" d="M293.548,-359.697C290.282,-351.813 286.342,-342.304 282.714,-333.546"/>
<polygon fill="grey" stroke="grey" stroke-width="2" points="285.863,-332.003 278.802,-324.104 279.396,-334.683 285.863,-332.003"/>
</g>
<!-- 17 -->
<g id="node18" class="node"><title>17</title>
<path fill="none" stroke="#d8b456" stroke-width="2" stroke-dasharray="5,2" d="M471.716,-684C471.716,-684 403.716,-684 403.716,-684 397.716,-684 391.716,-678 391.716,-672 391.716,-672 391.716,-660 391.716,-660 391.716,-654 397.716,-648 403.716,-648 403.716,-648 471.716,-648 471.716,-648 477.716,-648 483.716,-654 483.716,-660 483.716,-660 483.716,-672 483.716,-672 483.716,-678 477.716,-684 471.716,-684"/>
<text text-anchor="middle" x="437.716" y="-663.5" font-family="sans" font-size="10.00">genome_merge</text>
</g>
<!-- 17&#45;&gt;15 -->
<g id="edge31" class="edge"><title>17&#45;&gt;15</title>
<path fill="none" stroke="grey" stroke-width="2" d="M437.716,-647.697C437.716,-639.983 437.716,-630.712 437.716,-622.112"/>
<polygon fill="grey" stroke="grey" stroke-width="2" points="441.216,-622.104 437.716,-612.104 434.216,-622.104 441.216,-622.104"/>
</g>
<!-- 18 -->
<g id="node19" class="node"><title>18</title>
<path fill="none" stroke="#56d863" stroke-width="2" stroke-dasharray="5,2" d="M478.216,-756C478.216,-756 397.216,-756 397.216,-756 391.216,-756 385.216,-750 385.216,-744 385.216,-744 385.216,-732 385.216,-732 385.216,-726 391.216,-720 397.216,-720 397.216,-720 478.216,-720 478.216,-720 484.216,-720 490.216,-726 490.216,-732 490.216,-732 490.216,-744 490.216,-744 490.216,-750 484.216,-756 478.216,-756"/>
<text text-anchor="middle" x="437.716" y="-735.5" font-family="sans" font-size="10.00">genome_download</text>
</g>
<!-- 18&#45;&gt;17 -->
<g id="edge33" class="edge"><title>18&#45;&gt;17</title>
<path fill="none" stroke="grey" stroke-width="2" d="M437.716,-719.697C437.716,-711.983 437.716,-702.712 437.716,-694.112"/>
<polygon fill="grey" stroke="grey" stroke-width="2" points="441.216,-694.104 437.716,-684.104 434.216,-694.104 441.216,-694.104"/>
</g>
</g>
</svg>
