<svg xmlns="http://www.w3.org/2000/svg" xmlns:xlink="http://www.w3.org/1999/xlink" id="processonSvg1000" viewBox="226.0 193.8000030517578 583.0 366.0" width="583.0" height="366.0"><defs id="ProcessOnDefs1001"><marker id="ProcessOnMarker1035" markerUnits="userSpaceOnUse" orient="auto" markerWidth="16.23606797749979" markerHeight="10.550836550532098" viewBox="-1.0 -1.3763819204711736 16.23606797749979 10.550836550532098" refX="-1.0" refY="3.8990363547948754"><path id="ProcessOnPath1036" d="M12.0 3.8990363547948754L0.0 7.798072709589751V0.0Z" stroke="#323232" stroke-width="2.0" fill="#323232" transform="matrix(1.0,0.0,0.0,1.0,0.0,0.0)"/></marker><marker id="ProcessOnMarker1039" markerUnits="userSpaceOnUse" orient="auto" markerWidth="16.23606797749979" markerHeight="10.550836550532098" viewBox="-1.0 -1.3763819204711736 16.23606797749979 10.550836550532098" refX="-1.0" refY="3.8990363547948754"><path id="ProcessOnPath1040" d="M12.0 3.8990363547948754L0.0 7.798072709589751V0.0Z" stroke="#323232" stroke-width="2.0" fill="#323232" transform="matrix(1.0,0.0,0.0,1.0,0.0,0.0)"/></marker><marker id="ProcessOnMarker1043" markerUnits="userSpaceOnUse" orient="auto" markerWidth="16.23606797749979" markerHeight="10.550836550532098" viewBox="-1.0 -1.3763819204711736 16.23606797749979 10.550836550532098" refX="-1.0" refY="3.8990363547948754"><path id="ProcessOnPath1044" d="M12.0 3.8990363547948754L0.0 7.798072709589751V0.0Z" stroke="#323232" stroke-width="2.0" fill="#323232" transform="matrix(1.0,0.0,0.0,1.0,0.0,0.0)"/></marker><marker id="ProcessOnMarker1047" markerUnits="userSpaceOnUse" orient="auto" markerWidth="16.23606797749979" markerHeight="10.550836550532098" viewBox="-1.0 -1.3763819204711736 16.23606797749979 10.550836550532098" refX="-1.0" refY="3.8990363547948754"><path id="ProcessOnPath1048" d="M12.0 3.8990363547948754L0.0 7.798072709589751V0.0Z" stroke="#323232" stroke-width="2.0" fill="#323232" transform="matrix(1.0,0.0,0.0,1.0,0.0,0.0)"/></marker></defs><g id="ProcessOnG1002"><path id="ProcessOnPath1003" d="M226.0 193.8000030517578H809.0V559.8000030517578H226.0V193.8000030517578Z" fill="none"/><g id="ProcessOnG1004"><g id="ProcessOnG1005" transform="matrix(1.0,0.0,0.0,1.0,372.0,213.8000030517578)" opacity="1.0"><path id="ProcessOnPath1006" d="M35.666666666666664 0.0L219.33333333333334 0.0C266.8888888888889 0.0 266.8888888888889 107.0 219.33333333333334 107.0L35.666666666666664 107.0C-11.888888888888888 107.0 -11.888888888888888 0.0 35.666666666666664 0.0Z" stroke="#323232" stroke-width="2.0" stroke-dasharray="none" opacity="1.0" fill="#ffffff"/><g id="ProcessOnG1007" transform="matrix(1.0,0.0,0.0,1.0,10.0,21.0)"><text id="ProcessOnText1008" fill="#000000" font-size="13" x="116.5" y="13.325" font-family="微软雅黑" font-weight="normal" font-style="normal" text-decoration="none" family="微软雅黑" text-anchor="middle" size="13">a project working directory </text><text id="ProcessOnText1009" fill="#000000" font-size="13" x="116.5" y="29.575" font-family="微软雅黑" font-weight="normal" font-style="normal" text-decoration="none" family="微软雅黑" text-anchor="middle" size="13">initialization</text><text id="ProcessOnText1010" fill="#000000" font-size="13" x="116.5" y="45.825" font-family="微软雅黑" font-weight="normal" font-style="normal" text-decoration="none" family="微软雅黑" text-anchor="middle" size="13"></text><text id="ProcessOnText1011" fill="#000000" font-size="13" x="116.5" y="62.075" font-family="微软雅黑" font-weight="normal" font-style="normal" text-decoration="none" family="微软雅黑" text-anchor="middle" size="13">metapi init --workdir .  </text></g></g><g id="ProcessOnG1012" transform="matrix(1.0,0.0,0.0,1.0,246.0,447.8000030517578)" opacity="1.0"><path id="ProcessOnPath1013" d="M30.666666666666668 0.0L119.33333333333333 0.0C160.22222222222223 0.0 160.22222222222223 92.0 119.33333333333333 92.0L30.666666666666668 92.0C-10.222222222222223 92.0 -10.222222222222223 0.0 30.666666666666668 0.0Z" stroke="#323232" stroke-width="2.0" stroke-dasharray="none" opacity="1.0" fill="#ffffff"/><g id="ProcessOnG1014" transform="matrix(1.0,0.0,0.0,1.0,10.0,21.625)"><text id="ProcessOnText1015" fill="#000000" font-size="13" x="64.0" y="13.325" font-family="微软雅黑" font-weight="normal" font-style="normal" text-decoration="none" family="微软雅黑" text-anchor="middle" size="13">metapi simulation --</text><text id="ProcessOnText1016" fill="#000000" font-size="13" x="64.0" y="29.575" font-family="微软雅黑" font-weight="normal" font-style="normal" text-decoration="none" family="微软雅黑" text-anchor="middle" size="13">workdir . --step </text><text id="ProcessOnText1017" fill="#000000" font-size="13" x="64.0" y="45.825" font-family="微软雅黑" font-weight="normal" font-style="normal" text-decoration="none" family="微软雅黑" text-anchor="middle" size="13">prokka_bins</text></g></g><g id="ProcessOnG1018" transform="matrix(1.0,0.0,0.0,1.0,613.0,447.8000030517578)" opacity="1.0"><path id="ProcessOnPath1019" d="M30.666666666666668 0.0L145.33333333333334 0.0C186.22222222222223 0.0 186.22222222222223 92.0 145.33333333333334 92.0L30.666666666666668 92.0C-10.222222222222223 92.0 -10.222222222222223 0.0 30.666666666666668 0.0Z" stroke="#323232" stroke-width="2.0" stroke-dasharray="none" opacity="1.0" fill="#ffffff"/><g id="ProcessOnG1020" transform="matrix(1.0,0.0,0.0,1.0,10.0,29.75)"><text id="ProcessOnText1021" fill="#000000" font-size="13" x="77.0" y="13.325" font-family="微软雅黑" font-weight="normal" font-style="normal" text-decoration="none" family="微软雅黑" text-anchor="middle" size="13">metapi workflow --work</text><text id="ProcessOnText1022" fill="#000000" font-size="13" x="77.0" y="29.575" font-family="微软雅黑" font-weight="normal" font-style="normal" text-decoration="none" family="微软雅黑" text-anchor="middle" size="13">dir . --step prokka_bins</text></g></g><g id="ProcessOnG1023" transform="matrix(1.0,0.0,0.0,1.0,651.0,329.8000030517578)" opacity="1.0"><path id="ProcessOnPath1024" d="M0.0 8.333333333333334Q25.0 25.0 50.0 8.333333333333334Q75.0 -8.333333333333334 100.0 8.333333333333334L100.0 61.666666666666664Q75.0 45.0 50.0 61.666666666666664Q25.0 78.33333333333333 0.0 61.666666666666664L0.0 8.333333333333334Z" stroke="#323232" stroke-width="2.0" stroke-dasharray="none" opacity="1.0" fill="#ffffff"/><g id="ProcessOnG1025" transform="matrix(1.0,0.0,0.0,1.0,0.0,18.75)"><text id="ProcessOnText1026" fill="#000000" font-size="13" x="49.0" y="13.325" font-family="微软雅黑" font-weight="normal" font-style="normal" text-decoration="none" family="微软雅黑" text-anchor="middle" size="13">supply samples </text><text id="ProcessOnText1027" fill="#000000" font-size="13" x="49.0" y="29.575" font-family="微软雅黑" font-weight="normal" font-style="normal" text-decoration="none" family="微软雅黑" text-anchor="middle" size="13">list</text></g></g><g id="ProcessOnG1028" transform="matrix(1.0,0.0,0.0,1.0,271.0,336.8000030517578)" opacity="1.0"><path id="ProcessOnPath1029" d="M0.0 8.333333333333334Q25.0 25.0 50.0 8.333333333333334Q75.0 -8.333333333333334 100.0 8.333333333333334L100.0 61.666666666666664Q75.0 45.0 50.0 61.666666666666664Q25.0 78.33333333333333 0.0 61.666666666666664L0.0 8.333333333333334Z" stroke="#323232" stroke-width="2.0" stroke-dasharray="none" opacity="1.0" fill="#ffffff"/><g id="ProcessOnG1030" transform="matrix(1.0,0.0,0.0,1.0,0.0,18.75)"><text id="ProcessOnText1031" fill="#000000" font-size="13" x="49.0" y="13.325" font-family="微软雅黑" font-weight="normal" font-style="normal" text-decoration="none" family="微软雅黑" text-anchor="middle" size="13">automatic </text><text id="ProcessOnText1032" fill="#000000" font-size="13" x="49.0" y="29.575" font-family="微软雅黑" font-weight="normal" font-style="normal" text-decoration="none" family="微软雅黑" text-anchor="middle" size="13">generate reads</text></g></g><g id="ProcessOnG1033"><path id="ProcessOnPath1034" d="M627.0 267.3000030517578L701.0 267.3000030517578L701.0 322.89726840759135" stroke="#323232" stroke-width="2.0" stroke-dasharray="none" fill="none" marker-end="url(#ProcessOnMarker1035)"/></g><g id="ProcessOnG1037"><path id="ProcessOnPath1038" d="M701.0 391.4666697184245L701.0 415.6333363850912L701.0 415.6333363850912L701.0 424.56393507425804" stroke="#323232" stroke-width="2.0" stroke-dasharray="none" fill="none" marker-end="url(#ProcessOnMarker1039)"/></g><g id="ProcessOnG1041"><path id="ProcessOnPath1042" d="M372.0 267.3000030517578L321.0 267.3000030517578L321.0 329.89726840759135" stroke="#323232" stroke-width="2.0" stroke-dasharray="none" fill="none" marker-end="url(#ProcessOnMarker1043)"/></g><g id="ProcessOnG1045"><path id="ProcessOnPath1046" d="M321.0 398.4666697184245L321.0 423.1333363850912L321.0 423.1333363850912L321.0 432.56393507425804" stroke="#323232" stroke-width="2.0" stroke-dasharray="none" fill="none" marker-end="url(#ProcessOnMarker1047)"/></g></g></g></svg>